<svg xmlns="http://www.w3.org/2000/svg" xmlns:xlink="http://www.w3.org/1999/xlink" width="2000" zoomAndPan="magnify" viewBox="0 0 1500 1499.999933" height="2000" preserveAspectRatio="xMidYMid meet" version="1.0"><defs><g/><clipPath id="86f7d9405d"><path d="M 217.675781 585.6875 L 1304 585.6875 L 1304 1090.074219 L 217.675781 1090.074219 Z M 217.675781 585.6875 " clip-rule="nonzero"/></clipPath><clipPath id="17ccead177"><path d="M 286.675781 585.6875 L 1234.773438 585.6875 C 1253.070312 585.6875 1270.621094 592.957031 1283.5625 605.898438 C 1296.503906 618.835938 1303.773438 636.386719 1303.773438 654.6875 L 1303.773438 1021.074219 C 1303.773438 1039.371094 1296.503906 1056.921875 1283.5625 1069.863281 C 1270.621094 1082.804688 1253.070312 1090.074219 1234.773438 1090.074219 L 286.675781 1090.074219 C 268.375 1090.074219 250.824219 1082.804688 237.882812 1069.863281 C 224.945312 1056.921875 217.675781 1039.371094 217.675781 1021.074219 L 217.675781 654.6875 C 217.675781 636.386719 224.945312 618.835938 237.882812 605.898438 C 250.824219 592.957031 268.375 585.6875 286.675781 585.6875 Z M 286.675781 585.6875 " clip-rule="nonzero"/></clipPath><clipPath id="e024554348"><path d="M 0.675781 0.6875 L 1086.917969 0.6875 L 1086.917969 505.074219 L 0.675781 505.074219 Z M 0.675781 0.6875 " clip-rule="nonzero"/></clipPath><clipPath id="fb86d06664"><path d="M 69.675781 0.6875 L 1017.773438 0.6875 C 1036.070312 0.6875 1053.621094 7.957031 1066.5625 20.898438 C 1079.503906 33.835938 1086.773438 51.386719 1086.773438 69.6875 L 1086.773438 436.074219 C 1086.773438 454.371094 1079.503906 471.921875 1066.5625 484.863281 C 1053.621094 497.804688 1036.070312 505.074219 1017.773438 505.074219 L 69.675781 505.074219 C 51.375 505.074219 33.824219 497.804688 20.882812 484.863281 C 7.945312 471.921875 0.675781 454.371094 0.675781 436.074219 L 0.675781 69.6875 C 0.675781 51.386719 7.945312 33.835938 20.882812 20.898438 C 33.824219 7.957031 51.375 0.6875 69.675781 0.6875 Z M 69.675781 0.6875 " clip-rule="nonzero"/></clipPath><clipPath id="524665d289"><rect x="0" width="1087" y="0" height="506"/></clipPath><clipPath id="7b016c9816"><path d="M 217.675781 531.136719 L 1303.773438 531.136719 L 1303.773438 764.875 L 217.675781 764.875 Z M 217.675781 531.136719 " clip-rule="nonzero"/></clipPath><clipPath id="1623714011"><path d="M 0.675781 0.136719 L 1086.773438 0.136719 L 1086.773438 233.875 L 0.675781 233.875 Z M 0.675781 0.136719 " clip-rule="nonzero"/></clipPath><clipPath id="d4154e2c73"><rect x="0" width="1087" y="0" height="234"/></clipPath><clipPath id="72fa13a700"><path d="M 289.730469 608.535156 L 801.960938 608.535156 L 801.960938 1024.824219 L 289.730469 1024.824219 Z M 289.730469 608.535156 " clip-rule="nonzero"/></clipPath><clipPath id="467792ad54"><path d="M 673.289062 608.535156 L 289.730469 608.535156 L 289.730469 1024.824219 L 673.289062 1024.824219 L 801.144531 816.679688 Z M 673.289062 608.535156 " clip-rule="nonzero"/></clipPath><clipPath id="1e35ca2170"><path d="M 0.730469 0.535156 L 512 0.535156 L 512 416.824219 L 0.730469 416.824219 Z M 0.730469 0.535156 " clip-rule="nonzero"/></clipPath><clipPath id="c7c9ea92fe"><path d="M 384.289062 0.535156 L 0.730469 0.535156 L 0.730469 416.824219 L 384.289062 416.824219 L 512.144531 208.679688 Z M 384.289062 0.535156 " clip-rule="nonzero"/></clipPath><clipPath id="d06147c8fb"><rect x="0" width="513" y="0" height="417"/></clipPath><clipPath id="a00029cdc6"><path d="M 702.363281 608.535156 L 1245.492188 608.535156 L 1245.492188 1024.824219 L 702.363281 1024.824219 Z M 702.363281 608.535156 " clip-rule="nonzero"/></clipPath><clipPath id="c374a778a5"><path d="M 1245.070312 608.535156 L 702.363281 608.535156 L 844.894531 816.679688 L 702.363281 1024.824219 L 1245.070312 1024.824219 L 1102.542969 816.679688 Z M 1245.070312 608.535156 " clip-rule="nonzero"/></clipPath><clipPath id="47a7369e94"><path d="M 0.363281 0.535156 L 543.121094 0.535156 L 543.121094 416.824219 L 0.363281 416.824219 Z M 0.363281 0.535156 " clip-rule="nonzero"/></clipPath><clipPath id="eae9cec291"><path d="M 543.070312 0.535156 L 0.363281 0.535156 L 142.894531 208.679688 L 0.363281 416.824219 L 543.070312 416.824219 L 400.542969 208.679688 Z M 543.070312 0.535156 " clip-rule="nonzero"/></clipPath><clipPath id="4dea1ad82c"><rect x="0" width="544" y="0" height="417"/></clipPath><clipPath id="1ecd450959"><rect x="0" width="1065" y="0" height="226"/></clipPath></defs><g clip-path="url(#86f7d9405d)"><g clip-path="url(#17ccead177)"><g transform="matrix(1, 0, 0, 1, 217, 585)"><g clip-path="url(#524665d289)"><g clip-path="url(#e024554348)"><g clip-path="url(#fb86d06664)"><path fill="#ffffff" d="M 0.675781 0.6875 L 1086.285156 0.6875 L 1086.285156 505.074219 L 0.675781 505.074219 Z M 0.675781 0.6875 " fill-opacity="1" fill-rule="nonzero"/></g></g></g></g></g></g><g clip-path="url(#7b016c9816)"><g transform="matrix(1, 0, 0, 1, 217, 531)"><g clip-path="url(#d4154e2c73)"><g clip-path="url(#1623714011)"><path fill="#ffffff" d="M 0.675781 0.136719 L 1087.195312 0.136719 L 1087.195312 233.875 L 0.675781 233.875 Z M 0.675781 0.136719 " fill-opacity="1" fill-rule="nonzero"/></g></g></g></g><g clip-path="url(#72fa13a700)"><g clip-path="url(#467792ad54)"><g transform="matrix(1, 0, 0, 1, 289, 608)"><g clip-path="url(#d06147c8fb)"><g clip-path="url(#1e35ca2170)"><g clip-path="url(#c7c9ea92fe)"><path fill="#011d22" d="M 0.730469 0.535156 L 511.335938 0.535156 L 511.335938 416.824219 L 0.730469 416.824219 Z M 0.730469 0.535156 " fill-opacity="1" fill-rule="nonzero"/></g></g></g></g></g></g><g clip-path="url(#a00029cdc6)"><g clip-path="url(#c374a778a5)"><g transform="matrix(1, 0, 0, 1, 702, 608)"><g clip-path="url(#4dea1ad82c)"><g clip-path="url(#47a7369e94)"><g clip-path="url(#eae9cec291)"><path fill="#355459" d="M 0.363281 0.535156 L 543.492188 0.535156 L 543.492188 416.824219 L 0.363281 416.824219 Z M 0.363281 0.535156 " fill-opacity="1" fill-rule="nonzero"/></g></g></g></g></g></g><g transform="matrix(1, 0, 0, 1, 231, 310)"><g clip-path="url(#1ecd450959)"><g fill="#f5f5dc" fill-opacity="1"><g transform="translate(2.341432, 160.361217)"><g><path d="M 84.0625 3.046875 C 71.675781 3.046875 60.710938 0.988281 51.171875 -3.125 C 41.628906 -7.238281 33.632812 -12.921875 27.1875 -20.171875 C 20.738281 -27.429688 15.863281 -35.832031 12.5625 -45.375 C 9.257812 -54.914062 7.609375 -65.171875 7.609375 -76.140625 C 7.609375 -87.109375 9.257812 -97.363281 12.5625 -106.90625 C 15.863281 -116.445312 20.738281 -124.84375 27.1875 -132.09375 C 33.632812 -139.351562 41.628906 -145.039062 51.171875 -149.15625 C 60.710938 -153.269531 71.675781 -155.328125 84.0625 -155.328125 C 96.957031 -155.328125 108.125 -153.421875 117.5625 -149.609375 C 127 -145.804688 134.304688 -140.601562 139.484375 -134 C 144.660156 -127.40625 147.25 -119.894531 147.25 -111.46875 C 147.25 -104.664062 145.320312 -99.179688 141.46875 -95.015625 C 137.613281 -90.859375 132.789062 -88.78125 127 -88.78125 C 124.257812 -88.78125 121.316406 -89.335938 118.171875 -90.453125 C 119.179688 -94.921875 119.023438 -98.78125 117.703125 -102.03125 C 116.390625 -105.28125 114.207031 -107.992188 111.15625 -110.171875 C 108.113281 -112.359375 104.5625 -114.109375 100.5 -115.421875 C 96.445312 -116.742188 92.234375 -117.679688 87.859375 -118.234375 C 83.492188 -118.796875 79.382812 -119.078125 75.53125 -119.078125 C 62.84375 -119.078125 52.15625 -117.222656 43.46875 -113.515625 C 34.789062 -109.816406 28.269531 -104.742188 23.90625 -98.296875 C 19.539062 -91.847656 17.359375 -84.460938 17.359375 -76.140625 C 17.359375 -67.816406 19.539062 -60.429688 23.90625 -53.984375 C 28.269531 -47.535156 34.789062 -42.457031 43.46875 -38.75 C 52.15625 -35.050781 62.84375 -33.203125 75.53125 -33.203125 C 79.382812 -33.203125 83.492188 -33.476562 87.859375 -34.03125 C 92.234375 -34.59375 96.445312 -35.53125 100.5 -36.84375 C 104.5625 -38.164062 108.113281 -39.914062 111.15625 -42.09375 C 114.207031 -44.28125 116.414062 -47 117.78125 -50.25 C 119.15625 -53.5 119.285156 -57.359375 118.171875 -61.828125 C 121.316406 -62.941406 124.257812 -63.5 127 -63.5 C 132.789062 -63.5 137.613281 -61.414062 141.46875 -57.25 C 145.320312 -53.09375 147.25 -47.613281 147.25 -40.8125 C 147.25 -32.488281 144.660156 -25 139.484375 -18.34375 C 134.304688 -11.695312 127 -6.46875 117.5625 -2.65625 C 108.125 1.144531 96.957031 3.046875 84.0625 3.046875 Z M 84.0625 3.046875 "/></g></g></g><g fill="#f5f5dc" fill-opacity="1"><g transform="translate(157.167687, 160.361217)"><g><path d="M 4.5625 -152.28125 L 54.96875 -152.28125 C 47.5625 -143.34375 41.773438 -133.953125 37.609375 -124.109375 C 33.453125 -114.265625 30.660156 -103.910156 29.234375 -93.046875 L 120 -93.046875 C 118.675781 -103.910156 115.90625 -114.265625 111.6875 -124.109375 C 107.476562 -133.953125 101.617188 -143.34375 94.109375 -152.28125 L 144.515625 -152.28125 C 139.128906 -145.78125 135.570312 -137.453125 133.84375 -127.296875 C 132.125 -117.148438 131.113281 -105.734375 130.8125 -93.046875 L 130.8125 -59.234375 C 131.113281 -46.546875 132.125 -35.148438 133.84375 -25.046875 C 135.570312 -14.941406 139.128906 -6.59375 144.515625 0 L 94.109375 0 C 101.617188 -9.03125 107.476562 -18.46875 111.6875 -28.3125 C 115.90625 -38.164062 118.675781 -48.472656 120 -59.234375 L 29.234375 -59.234375 C 30.660156 -48.472656 33.453125 -38.164062 37.609375 -28.3125 C 41.773438 -18.46875 47.5625 -9.03125 54.96875 0 L 4.5625 0 C 8.925781 -5.28125 12.070312 -11.75 14 -19.40625 C 15.9375 -27.070312 17.15625 -35.703125 17.65625 -45.296875 C 18.164062 -54.890625 18.421875 -65.171875 18.421875 -76.140625 C 18.421875 -87.203125 18.164062 -97.503906 17.65625 -107.046875 C 17.15625 -116.597656 15.9375 -125.203125 14 -132.859375 C 12.070312 -140.523438 8.925781 -147 4.5625 -152.28125 Z M 4.5625 -152.28125 "/></g></g></g><g fill="#f5f5dc" fill-opacity="1"><g transform="translate(306.208854, 160.361217)"><g><path d="M 67.3125 0 L 0 0 C 4.363281 -4.363281 8.5 -9.894531 12.40625 -16.59375 C 16.320312 -23.300781 20.003906 -30.765625 23.453125 -38.984375 C 26.898438 -47.203125 30.046875 -55.753906 32.890625 -64.640625 C 35.734375 -73.523438 38.195312 -82.382812 40.28125 -91.21875 C 42.363281 -100.050781 44.015625 -108.425781 45.234375 -116.34375 C 46.453125 -124.257812 47.238281 -131.3125 47.59375 -137.5 C 47.945312 -143.695312 47.71875 -148.625 46.90625 -152.28125 L 112.84375 -152.28125 C 112.132812 -148.625 111.929688 -143.695312 112.234375 -137.5 C 112.535156 -131.3125 113.296875 -124.257812 114.515625 -116.34375 C 115.734375 -108.425781 117.382812 -100.050781 119.46875 -91.21875 C 121.550781 -82.382812 124.007812 -73.523438 126.84375 -64.640625 C 129.6875 -55.753906 132.832031 -47.203125 136.28125 -38.984375 C 139.738281 -30.765625 143.421875 -23.300781 147.328125 -16.59375 C 151.234375 -9.894531 155.375 -4.363281 159.75 0 L 92.28125 0 C 95.425781 -2.132812 98.46875 -5.304688 101.40625 -9.515625 C 104.351562 -13.734375 106.789062 -18.453125 108.71875 -23.671875 C 110.65625 -28.898438 111.625 -34.101562 111.625 -39.28125 C 111.625 -43.039062 110.097656 -46.644531 107.046875 -50.09375 C 104.003906 -53.550781 100.046875 -56.367188 95.171875 -58.546875 C 90.296875 -60.734375 85.171875 -61.828125 79.796875 -61.828125 C 74.410156 -61.828125 69.28125 -60.734375 64.40625 -58.546875 C 59.539062 -56.367188 55.582031 -53.550781 52.53125 -50.09375 C 49.488281 -46.644531 47.96875 -43.039062 47.96875 -39.28125 C 47.96875 -34.101562 48.929688 -28.898438 50.859375 -23.671875 C 52.785156 -18.453125 55.222656 -13.734375 58.171875 -9.515625 C 61.117188 -5.304688 64.164062 -2.132812 67.3125 0 Z M 79.796875 -116.796875 C 73.597656 -116.796875 68.289062 -115.066406 63.875 -111.609375 C 59.457031 -108.160156 55.90625 -103.539062 53.21875 -97.75 C 50.53125 -91.96875 48.628906 -85.472656 47.515625 -78.265625 C 46.398438 -71.054688 45.992188 -63.695312 46.296875 -56.1875 C 46.296875 -62.6875 47.71875 -68.523438 50.5625 -73.703125 C 53.40625 -78.878906 57.363281 -82.988281 62.4375 -86.03125 C 67.507812 -89.082031 73.296875 -90.609375 79.796875 -90.609375 C 86.390625 -90.609375 92.195312 -89.082031 97.21875 -86.03125 C 102.25 -82.988281 106.1875 -78.878906 109.03125 -73.703125 C 111.875 -68.523438 113.296875 -62.6875 113.296875 -56.1875 C 113.597656 -63.695312 113.191406 -71.054688 112.078125 -78.265625 C 110.960938 -85.472656 109.054688 -91.96875 106.359375 -97.75 C 103.671875 -103.539062 100.144531 -108.160156 95.78125 -111.609375 C 91.414062 -115.066406 86.085938 -116.796875 79.796875 -116.796875 Z M 79.796875 -116.796875 "/></g></g></g><g fill="#f5f5dc" fill-opacity="1"><g transform="translate(465.906702, 160.361217)"><g><path d="M 4.5625 -152.28125 L 50.703125 -152.28125 C 55.679688 -152.28125 59.566406 -150.753906 62.359375 -147.703125 C 65.148438 -144.660156 67.226562 -140.601562 68.59375 -135.53125 C 69.96875 -130.457031 70.882812 -124.898438 71.34375 -118.859375 C 71.800781 -112.816406 72.128906 -106.773438 72.328125 -100.734375 C 72.535156 -94.691406 72.84375 -89.128906 73.25 -84.046875 C 73.65625 -78.972656 74.515625 -74.914062 75.828125 -71.875 C 77.148438 -68.832031 79.179688 -67.3125 81.921875 -67.3125 C 84.765625 -67.3125 86.820312 -68.832031 88.09375 -71.875 C 89.363281 -74.914062 90.226562 -78.972656 90.6875 -84.046875 C 91.144531 -89.128906 91.472656 -94.691406 91.671875 -100.734375 C 91.878906 -106.773438 92.207031 -112.816406 92.65625 -118.859375 C 93.113281 -124.898438 94.023438 -130.457031 95.390625 -135.53125 C 96.765625 -140.601562 98.847656 -144.660156 101.640625 -147.703125 C 104.429688 -150.753906 108.316406 -152.28125 113.296875 -152.28125 L 159.4375 -152.28125 C 155.070312 -147 151.925781 -140.523438 150 -132.859375 C 148.070312 -125.203125 146.851562 -116.597656 146.34375 -107.046875 C 145.832031 -97.503906 145.578125 -87.203125 145.578125 -76.140625 C 145.578125 -65.171875 145.832031 -54.890625 146.34375 -45.296875 C 146.851562 -35.703125 148.070312 -27.070312 150 -19.40625 C 151.925781 -11.75 155.070312 -5.28125 159.4375 0 L 91.375 0 C 96.445312 -3.445312 101.570312 -7.8125 106.75 -13.09375 C 111.925781 -18.375 116.722656 -24.539062 121.140625 -31.59375 C 125.554688 -38.65625 129.109375 -46.578125 131.796875 -55.359375 C 134.484375 -64.140625 135.828125 -73.707031 135.828125 -84.0625 C 135.828125 -92.894531 135.703125 -99.722656 135.453125 -104.546875 C 135.203125 -109.367188 134.644531 -112.691406 133.78125 -114.515625 C 132.914062 -116.335938 131.617188 -117.25 129.890625 -117.25 C 127.046875 -117.25 124.101562 -115.675781 121.0625 -112.53125 C 118.019531 -109.382812 115.078125 -105.273438 112.234375 -100.203125 C 109.390625 -95.128906 106.800781 -89.546875 104.46875 -83.453125 C 102.132812 -77.359375 100.226562 -71.34375 98.75 -65.40625 C 97.28125 -59.46875 96.414062 -54.0625 96.15625 -49.1875 C 95.90625 -44.3125 96.492188 -40.609375 97.921875 -38.078125 L 66.09375 -38.078125 C 67.507812 -40.710938 68.113281 -44.46875 67.90625 -49.34375 C 67.707031 -54.21875 66.875 -59.648438 65.40625 -65.640625 C 63.9375 -71.628906 62.007812 -77.640625 59.625 -83.671875 C 57.238281 -89.710938 54.625 -95.269531 51.78125 -100.34375 C 48.9375 -105.425781 45.988281 -109.515625 42.9375 -112.609375 C 39.894531 -115.703125 36.953125 -117.25 34.109375 -117.25 C 32.378906 -117.25 31.082031 -116.335938 30.21875 -114.515625 C 29.363281 -112.691406 28.804688 -109.367188 28.546875 -104.546875 C 28.296875 -99.722656 28.171875 -92.894531 28.171875 -84.0625 C 28.171875 -73.707031 29.515625 -64.140625 32.203125 -55.359375 C 34.898438 -46.578125 38.453125 -38.65625 42.859375 -31.59375 C 47.273438 -24.539062 52.097656 -18.375 57.328125 -13.09375 C 62.554688 -7.8125 67.660156 -3.445312 72.640625 0 L 4.5625 0 C 8.925781 -5.28125 12.070312 -11.75 14 -19.40625 C 15.9375 -27.070312 17.15625 -35.703125 17.65625 -45.296875 C 18.164062 -54.890625 18.421875 -65.171875 18.421875 -76.140625 C 18.421875 -87.203125 18.164062 -97.503906 17.65625 -107.046875 C 17.15625 -116.597656 15.9375 -125.203125 14 -132.859375 C 12.070312 -140.523438 8.925781 -147 4.5625 -152.28125 Z M 4.5625 -152.28125 "/></g></g></g><g fill="#f5f5dc" fill-opacity="1"><g transform="translate(629.867222, 160.361217)"><g><path d="M 18.125 -76.140625 C 18.125 -87.203125 17.867188 -97.503906 17.359375 -107.046875 C 16.847656 -116.597656 15.628906 -125.203125 13.703125 -132.859375 C 11.773438 -140.523438 8.628906 -147 4.265625 -152.28125 C 18.785156 -152.28125 33.300781 -152.757812 47.8125 -153.71875 C 62.332031 -154.6875 76.800781 -155.171875 91.21875 -155.171875 C 101.363281 -155.171875 110.421875 -153.421875 118.390625 -149.921875 C 126.367188 -146.421875 132.664062 -141.242188 137.28125 -134.390625 C 141.894531 -127.535156 144.203125 -118.984375 144.203125 -108.734375 C 144.203125 -101.015625 142.550781 -94.207031 139.25 -88.3125 C 135.957031 -82.425781 131.546875 -77.476562 126.015625 -73.46875 C 120.484375 -69.457031 114.316406 -66.460938 107.515625 -64.484375 C 100.710938 -62.503906 93.859375 -61.515625 86.953125 -61.515625 C 82.484375 -61.515625 77.582031 -61.921875 72.25 -62.734375 C 66.925781 -63.546875 61.519531 -64.816406 56.03125 -66.546875 C 50.550781 -68.273438 45.347656 -70.429688 40.421875 -73.015625 C 35.503906 -75.609375 31.21875 -78.679688 27.5625 -82.234375 C 27.769531 -72.078125 29.242188 -62.707031 31.984375 -54.125 C 34.722656 -45.550781 38.273438 -37.835938 42.640625 -30.984375 C 47.003906 -24.128906 51.75 -18.113281 56.875 -12.9375 C 62 -7.757812 67.050781 -3.445312 72.03125 0 L 4.265625 0 C 8.628906 -5.28125 11.773438 -11.75 13.703125 -19.40625 C 15.628906 -27.070312 16.847656 -35.703125 17.359375 -45.296875 C 17.867188 -54.890625 18.125 -65.171875 18.125 -76.140625 Z M 27.5625 -89.390625 C 29.789062 -86.953125 32.859375 -84.789062 36.765625 -82.90625 C 40.679688 -81.03125 45 -79.429688 49.71875 -78.109375 C 54.4375 -76.796875 59.128906 -75.804688 63.796875 -75.140625 C 68.472656 -74.484375 72.640625 -74.15625 76.296875 -74.15625 C 82.390625 -74.15625 87.820312 -74.890625 92.59375 -76.359375 C 97.363281 -77.835938 101.144531 -80.351562 103.9375 -83.90625 C 106.726562 -87.457031 108.125 -92.28125 108.125 -98.375 C 108.125 -102.332031 107.109375 -105.65625 105.078125 -108.34375 C 103.046875 -111.039062 100.40625 -113.175781 97.15625 -114.75 C 93.90625 -116.320312 90.398438 -117.460938 86.640625 -118.171875 C 82.890625 -118.878906 79.335938 -119.234375 75.984375 -119.234375 C 66.847656 -119.234375 58.242188 -118.898438 50.171875 -118.234375 C 42.109375 -117.578125 34.570312 -117.25 27.5625 -117.25 Z M 27.5625 -89.390625 "/></g></g></g><g fill="#f5f5dc" fill-opacity="1"><g transform="translate(778.603927, 160.361217)"><g><path d="M 3.8125 -152.28125 L 72.03125 -152.28125 C 67.050781 -148.832031 61.945312 -144.46875 56.71875 -139.1875 C 51.488281 -133.90625 46.664062 -127.734375 42.25 -120.671875 C 37.84375 -113.617188 34.289062 -105.703125 31.59375 -96.921875 C 28.90625 -88.140625 27.5625 -78.570312 27.5625 -68.21875 L 27.5625 -35.171875 L 67.609375 -35.171875 C 79.691406 -35.171875 89.816406 -36.160156 97.984375 -38.140625 C 106.160156 -40.117188 113.039062 -43.695312 118.625 -48.875 L 118.625 0 L 3.8125 0 C 8.175781 -5.28125 11.320312 -11.75 13.25 -19.40625 C 15.175781 -27.070312 16.394531 -35.703125 16.90625 -45.296875 C 17.414062 -54.890625 17.671875 -65.171875 17.671875 -76.140625 C 17.671875 -87.203125 17.414062 -97.503906 16.90625 -107.046875 C 16.394531 -116.597656 15.175781 -125.203125 13.25 -132.859375 C 11.320312 -140.523438 8.175781 -147 3.8125 -152.28125 Z M 3.8125 -152.28125 "/></g></g></g><g fill="#f5f5dc" fill-opacity="1"><g transform="translate(901.764548, 160.361217)"><g><path d="M 0 -152.28125 L 68.0625 -152.28125 C 63.90625 -148.113281 60.582031 -143.132812 58.09375 -137.34375 C 55.601562 -131.5625 54.359375 -124.710938 54.359375 -116.796875 C 54.359375 -111.828125 55.296875 -106.957031 57.171875 -102.1875 C 59.054688 -97.414062 61.75 -93.476562 65.25 -90.375 C 68.75 -87.28125 72.882812 -85.734375 77.65625 -85.734375 C 82.53125 -85.734375 86.691406 -87.28125 90.140625 -90.375 C 93.597656 -93.476562 96.265625 -97.414062 98.140625 -102.1875 C 100.023438 -106.957031 100.96875 -111.828125 100.96875 -116.796875 C 100.96875 -124.710938 99.722656 -131.5625 97.234375 -137.34375 C 94.742188 -143.132812 91.414062 -148.113281 87.25 -152.28125 L 155.328125 -152.28125 C 151.566406 -150.457031 147.398438 -147.5625 142.828125 -143.59375 C 138.265625 -139.632812 133.113281 -134.175781 127.375 -127.21875 C 121.644531 -120.269531 115.148438 -111.488281 107.890625 -100.875 C 100.628906 -90.269531 92.332031 -77.457031 83 -62.4375 C 84.21875 -51.0625 86.957031 -40.171875 91.21875 -29.765625 C 95.476562 -19.359375 101.46875 -9.4375 109.1875 0 L 45.84375 0 C 53.65625 -9.4375 59.691406 -19.410156 63.953125 -29.921875 C 68.222656 -40.429688 70.914062 -51.421875 72.03125 -62.890625 C 62.789062 -77.816406 54.515625 -90.554688 47.203125 -101.109375 C 39.898438 -111.671875 33.40625 -120.398438 27.71875 -127.296875 C 22.03125 -134.203125 16.925781 -139.632812 12.40625 -143.59375 C 7.894531 -147.5625 3.757812 -150.457031 0 -152.28125 Z M 0 -152.28125 "/></g></g></g></g></g></svg>