<svg xmlns="http://www.w3.org/2000/svg" xmlns:xlink="http://www.w3.org/1999/xlink" width="2000" zoomAndPan="magnify" viewBox="0 0 1500 1499.999933" height="2000" preserveAspectRatio="xMidYMid meet" version="1.0"><defs><clipPath id="b42bc88fac"><path d="M 44 457 L 1456 457 L 1456 1113.039062 L 44 1113.039062 Z M 44 457 " clip-rule="nonzero"/></clipPath><clipPath id="ba5042b542"><path d="M 113.5625 457.824219 L 1386.4375 457.824219 C 1424.542969 457.824219 1455.4375 488.71875 1455.4375 526.824219 L 1455.4375 1044.039062 C 1455.4375 1082.144531 1424.542969 1113.039062 1386.4375 1113.039062 L 113.5625 1113.039062 C 75.457031 1113.039062 44.5625 1082.144531 44.5625 1044.039062 L 44.5625 526.824219 C 44.5625 488.71875 75.457031 457.824219 113.5625 457.824219 Z M 113.5625 457.824219 " clip-rule="nonzero"/></clipPath><clipPath id="6b7805af64"><path d="M 0.398438 0.679688 L 1411 0.679688 L 1411 656.039062 L 0.398438 656.039062 Z M 0.398438 0.679688 " clip-rule="nonzero"/></clipPath><clipPath id="bb69d70a32"><path d="M 69.5625 0.824219 L 1342.4375 0.824219 C 1380.542969 0.824219 1411.4375 31.71875 1411.4375 69.824219 L 1411.4375 587.039062 C 1411.4375 625.144531 1380.542969 656.039062 1342.4375 656.039062 L 69.5625 656.039062 C 31.457031 656.039062 0.5625 625.144531 0.5625 587.039062 L 0.5625 69.824219 C 0.5625 31.71875 31.457031 0.824219 69.5625 0.824219 Z M 69.5625 0.824219 " clip-rule="nonzero"/></clipPath><clipPath id="eb28a71240"><rect x="0" width="1412" y="0" height="657"/></clipPath><clipPath id="ed93c8cd67"><path d="M 44.5625 386.960938 L 1455.4375 386.960938 L 1455.4375 690.597656 L 44.5625 690.597656 Z M 44.5625 386.960938 " clip-rule="nonzero"/></clipPath><clipPath id="fc550980c0"><path d="M 0.5625 0.960938 L 1411.4375 0.960938 L 1411.4375 304.597656 L 0.5625 304.597656 Z M 0.5625 0.960938 " clip-rule="nonzero"/></clipPath><clipPath id="5a21990017"><rect x="0" width="1412" y="0" height="305"/></clipPath><clipPath id="85abc2e4c8"><path d="M 138.164062 487.503906 L 803 487.503906 L 803 1028.277344 L 138.164062 1028.277344 Z M 138.164062 487.503906 " clip-rule="nonzero"/></clipPath><clipPath id="b21393f459"><path d="M 636.421875 487.503906 L 138.164062 487.503906 L 138.164062 1028.277344 L 636.421875 1028.277344 L 802.507812 757.890625 Z M 636.421875 487.503906 " clip-rule="nonzero"/></clipPath><clipPath id="afd96c2995"><path d="M 0.164062 0.503906 L 664 0.503906 L 664 541.277344 L 0.164062 541.277344 Z M 0.164062 0.503906 " clip-rule="nonzero"/></clipPath><clipPath id="e40ab6b6e1"><path d="M 498.421875 0.503906 L 0.164062 0.503906 L 0.164062 541.277344 L 498.421875 541.277344 L 664.507812 270.890625 Z M 498.421875 0.503906 " clip-rule="nonzero"/></clipPath><clipPath id="e0dd76a16d"><rect x="0" width="665" y="0" height="542"/></clipPath><clipPath id="4ac344457d"><path d="M 674.191406 487.503906 L 1379.730469 487.503906 L 1379.730469 1028.277344 L 674.191406 1028.277344 Z M 674.191406 487.503906 " clip-rule="nonzero"/></clipPath><clipPath id="0777d66463"><path d="M 1379.183594 487.503906 L 674.191406 487.503906 L 859.339844 757.890625 L 674.191406 1028.277344 L 1379.183594 1028.277344 L 1194.035156 757.890625 Z M 1379.183594 487.503906 " clip-rule="nonzero"/></clipPath><clipPath id="25cedc5756"><path d="M 0.191406 0.503906 L 705.28125 0.503906 L 705.28125 541.277344 L 0.191406 541.277344 Z M 0.191406 0.503906 " clip-rule="nonzero"/></clipPath><clipPath id="a6bfeb8dc4"><path d="M 705.183594 0.503906 L 0.191406 0.503906 L 185.339844 270.890625 L 0.191406 541.277344 L 705.183594 541.277344 L 520.035156 270.890625 Z M 705.183594 0.503906 " clip-rule="nonzero"/></clipPath><clipPath id="48e320d296"><rect x="0" width="706" y="0" height="542"/></clipPath></defs><g clip-path="url(#b42bc88fac)"><g clip-path="url(#ba5042b542)"><g transform="matrix(1, 0, 0, 1, 44, 457)"><g clip-path="url(#eb28a71240)"><g clip-path="url(#6b7805af64)"><g clip-path="url(#bb69d70a32)"><path fill="#ffffff" d="M 0.5625 0.824219 L 1410.804688 0.824219 L 1410.804688 656.039062 L 0.5625 656.039062 Z M 0.5625 0.824219 " fill-opacity="1" fill-rule="nonzero"/></g></g></g></g></g></g><g clip-path="url(#ed93c8cd67)"><g transform="matrix(1, 0, 0, 1, 44, 386)"><g clip-path="url(#5a21990017)"><g clip-path="url(#fc550980c0)"><path fill="#ffffff" d="M 0.5625 0.960938 L 1411.988281 0.960938 L 1411.988281 304.597656 L 0.5625 304.597656 Z M 0.5625 0.960938 " fill-opacity="1" fill-rule="nonzero"/></g></g></g></g><g clip-path="url(#85abc2e4c8)"><g clip-path="url(#b21393f459)"><g transform="matrix(1, 0, 0, 1, 138, 487)"><g clip-path="url(#e0dd76a16d)"><g clip-path="url(#afd96c2995)"><g clip-path="url(#e40ab6b6e1)"><path fill="#011d22" d="M 0.164062 0.503906 L 663.457031 0.503906 L 663.457031 541.277344 L 0.164062 541.277344 Z M 0.164062 0.503906 " fill-opacity="1" fill-rule="nonzero"/></g></g></g></g></g></g><g clip-path="url(#4ac344457d)"><g clip-path="url(#0777d66463)"><g transform="matrix(1, 0, 0, 1, 674, 487)"><g clip-path="url(#48e320d296)"><g clip-path="url(#25cedc5756)"><g clip-path="url(#a6bfeb8dc4)"><path fill="#355459" d="M 0.191406 0.503906 L 705.730469 0.503906 L 705.730469 541.277344 L 0.191406 541.277344 Z M 0.191406 0.503906 " fill-opacity="1" fill-rule="nonzero"/></g></g></g></g></g></g></svg>